<?xml version="1.0" encoding="utf-8"?>
<svg viewBox="85.78 64.94 528.445 430.126" width="528.445pt" height="430.126pt" xmlns="http://www.w3.org/2000/svg">
  <path d="M 185.847 266.879 C 180.98 266.879 176.402 265.043 172.89 261.547 C 169.48 258.114 167.531 253.539 167.531 248.582 C 167.531 243.801 169.48 239.027 172.89 235.629 C 179.698 228.808 191.968 228.808 198.788 235.715 C 202.202 239.031 204.152 243.8 204.152 248.582 C 204.152 253.543 202.304 258.113 198.788 261.547 C 195.382 265.043 190.718 266.879 185.847 266.879 L 185.847 266.879 Z" stroke="#000" stroke-width=".2957"/>
  <path d="M 405.563 325.92 C 396.79 320.846 393.681 309.65 398.649 300.881 L 398.743 300.881 C 399.918 298.849 401.375 297.08 403.227 295.627 C 401.372 295.045 399.711 294.158 398.153 292.9 L 398.059 292.9 C 392.704 288.81 390.27 282.275 391.047 276.037 C 386.965 281.799 379.746 284.807 372.356 283.24 C 364.359 281.588 358.617 274.779 357.942 266.99 C 355.203 274.595 347.61 279.658 339.141 278.881 C 329.309 278.103 322 269.634 322.481 259.896 C 320.34 261.552 317.918 262.701 315.082 263.384 C 305.25 265.537 295.422 259.302 293.27 249.369 C 291.129 239.525 297.363 229.787 307.195 227.544 L 307.387 227.544 C 299.984 225.603 294.328 219.173 293.648 211.181 C 293.171 204.466 296.382 198.322 301.538 194.728 C 295.116 195.208 288.699 192.392 284.906 186.743 C 280.812 180.599 280.812 172.915 284.402 167.064 C 278.859 170.29 271.847 170.568 265.898 167.169 C 265.421 166.767 264.835 166.474 264.347 166.083 C 263.957 168.134 263.175 170.193 262.011 172.138 C 257.921 179.251 249.738 182.466 242.144 180.697 C 248.668 185.775 251.105 194.927 247.5 202.822 C 243.601 211.173 234.136 215.263 225.578 212.642 C 232.488 218.884 233.66 229.587 227.906 237.185 C 221.781 245.267 210.281 246.927 202.203 240.892 C 194.121 234.755 192.555 223.263 198.601 215.169 C 203.355 208.841 211.441 206.501 218.559 208.646 C 212.813 203.388 210.774 194.907 214.274 187.423 C 217.965 179.431 226.739 175.345 235.012 177.283 C 227.809 171.72 225.774 161.513 230.539 153.517 C 235.598 144.848 246.903 141.943 255.559 147.095 C 256.04 147.38 256.543 147.685 257.032 147.97 C 257.411 146.032 258.094 143.977 259.165 142.134 C 264.215 133.36 275.434 130.341 284.204 135.419 C 292.962 140.478 295.985 151.677 290.907 160.446 C 290.821 160.548 290.821 160.642 290.727 160.739 C 299.005 155.868 309.813 158.208 315.263 166.29 C 320.817 174.568 318.673 185.868 310.493 191.517 L 310.599 191.517 C 320.634 190.731 329.497 198.321 330.165 208.462 C 330.95 217.712 324.52 225.883 315.657 227.731 C 322.192 229.384 327.54 234.563 329.001 241.563 C 329.387 243.122 329.501 244.684 329.501 246.239 C 333.001 243.516 337.469 241.962 342.34 242.454 C 351.305 243.239 358.215 250.329 358.996 258.997 C 362.118 250.638 370.985 245.458 380.036 247.415 C 389.383 249.458 395.614 258.325 394.356 267.669 C 394.469 267.563 394.563 267.384 394.649 267.29 C 400.793 259.204 412.282 257.642 420.364 263.767 C 428.348 269.915 429.91 281.407 423.77 289.481 C 422.903 290.653 421.828 291.731 420.649 292.7 C 421.629 292.993 422.7 293.477 423.68 294.067 C 432.426 299.028 435.547 310.247 430.488 318.997 C 427.172 324.938 420.942 328.255 414.606 328.255 C 411.512 328.259 408.387 327.567 405.563 325.919 L 405.563 325.92 Z" stroke="#000" stroke-width=".2957"/>
  <path d="M 390.068 354.844 C 385.197 354.844 380.525 352.879 377.122 349.481 C 373.716 345.992 371.775 341.395 371.775 336.527 C 371.775 331.668 373.716 326.98 377.122 323.57 C 383.841 316.766 396.212 316.683 403.021 323.57 C 406.435 326.98 408.392 331.668 408.392 336.527 C 408.392 341.395 406.536 345.992 403.021 349.481 C 399.618 352.879 394.943 354.844 390.067 354.844 L 390.068 354.844 Z" stroke="#000" stroke-width=".2957"/>
  <path d="M 529.838 410.732 C 525.643 401.486 529.737 390.677 538.994 386.501 C 543.084 384.646 547.557 384.439 551.549 385.607 C 548.436 381.822 546.783 376.654 547.467 371.4 C 548.537 363.692 554.186 357.86 561.299 356.099 C 553.705 355.919 546.791 351.052 544.252 343.341 L 544.354 343.341 C 541.717 335.376 545.029 326.794 551.756 322.43 C 543.674 325.727 534.045 322.802 529.255 315.118 C 523.986 306.431 526.619 295.149 535.298 289.892 C 536.845 288.899 538.595 288.126 540.349 287.739 C 539.486 287.239 538.705 286.677 538.025 286.075 C 530.224 279.556 529.255 267.97 535.779 260.177 L 535.779 260.267 C 542.31 252.478 553.896 251.513 561.584 258.028 C 569.369 264.548 570.357 276.044 563.83 283.837 C 561.295 286.872 557.982 288.9 554.376 289.779 C 556.818 291.24 558.849 293.294 560.408 295.826 C 565.673 304.295 563.134 315.388 554.845 320.845 C 555.247 320.65 555.642 320.459 556.122 320.377 C 565.771 317.24 576.091 322.517 579.201 332.158 C 582.224 341.783 576.97 352.103 567.342 355.24 C 566.939 355.326 566.451 355.513 566.064 355.638 C 566.752 355.638 567.435 355.638 568.217 355.818 C 578.146 357.174 585.15 366.435 583.795 376.365 C 582.427 386.377 573.17 393.404 563.142 392.041 C 562.267 391.939 561.396 391.759 560.615 391.47 C 561.584 392.732 562.564 394.197 563.24 395.755 C 567.338 404.9 563.24 415.81 554.084 419.904 C 551.549 420.966 549.025 421.568 546.49 421.568 C 539.576 421.564 532.85 417.564 529.838 410.732 L 529.838 410.732 Z M 563.034 259.297 C 556.319 251.703 557.104 240.207 564.592 233.496 C 569.659 229.004 576.385 227.851 582.323 229.777 C 579.702 226.855 577.944 222.969 577.651 218.773 C 577.264 213.801 578.92 209.238 581.835 205.718 C 576.096 208.25 569.175 207.871 563.623 203.871 C 556.815 198.898 554.377 190.234 557.193 182.73 C 552.92 189.656 544.443 193.156 536.26 190.723 C 528.08 188.285 522.909 180.683 523.201 172.613 C 521.358 180.391 514.545 186.328 506.154 186.73 C 498.666 187.101 492.041 182.922 488.924 176.594 C 489.799 183.23 486.986 190.039 481.135 194.031 C 472.854 199.867 461.455 197.715 455.701 189.449 C 449.979 181.078 452.018 169.687 460.389 163.937 C 468.67 158.199 480.06 160.332 485.807 168.617 C 486.389 169.402 486.791 170.054 487.178 170.847 C 487.076 170.371 487.076 169.785 487.076 169.281 C 486.576 159.168 494.385 150.582 504.502 150.105 L 504.502 150.199 C 514.638 149.707 523.099 157.508 523.588 167.621 C 523.701 168.113 523.701 168.613 523.701 169.082 C 523.701 168.71 523.795 168.304 523.974 167.929 C 526.818 158.281 537.033 152.726 546.779 155.66 C 556.416 158.472 561.971 168.714 559.045 178.445 C 558.943 178.824 558.85 179.222 558.658 179.507 C 558.951 179.121 559.24 178.722 559.533 178.23 C 565.479 170.05 576.877 168.207 585.065 174.14 C 593.241 180.086 595.186 191.585 589.252 199.664 C 588.944 200.043 588.658 200.449 588.362 200.738 C 590.323 199.851 592.451 199.265 594.588 199.164 C 604.737 198.48 613.487 205.996 614.17 216.121 C 614.948 226.257 607.35 235.011 597.229 235.687 C 594.791 235.906 592.447 235.601 590.318 234.82 C 590.318 234.91 590.404 235.011 590.51 235.011 C 597.13 242.617 596.447 254.202 588.846 260.929 C 585.349 263.96 581.068 265.503 576.771 265.503 C 571.701 265.531 566.647 263.378 563.033 259.296 L 563.034 259.297 Z" stroke="#010202" stroke-width=".3106"/>
  <path d="M 402.343 494.413 C 392.503 491.764 386.765 481.663 389.492 471.901 C 389.687 471.218 389.878 470.542 390.168 469.851 C 390.062 470.073 389.875 470.351 389.687 470.538 C 384.042 478.917 372.547 481.05 364.261 475.308 C 355.879 469.573 353.738 458.159 359.484 449.905 C 365.234 441.515 376.632 439.394 385.004 445.128 C 392.211 450.085 394.742 459.241 391.629 467.132 C 395.711 460.425 404.003 456.902 411.98 459.05 C 415.011 459.925 417.636 461.492 419.687 463.417 C 419.879 461.296 420.473 459.152 421.441 456.999 C 425.434 448.823 434.586 444.933 443.062 447.367 C 434.68 444.05 429.699 434.984 431.965 425.937 C 434.391 416.109 444.328 410.168 454.157 412.594 C 464 414.933 469.942 424.859 467.508 434.695 C 465.16 444.523 455.238 450.465 445.399 448.14 C 445.106 448.035 444.918 447.929 444.614 447.929 C 445.004 448.042 445.489 448.253 445.879 448.433 C 455.031 452.808 458.844 463.824 454.445 472.878 C 450.059 482.03 439.164 485.843 430.012 481.452 C 428.246 480.675 426.707 479.491 425.438 478.339 C 425.344 479.394 425.141 480.46 424.844 481.542 C 422.621 489.718 415.2 495.066 407.121 495.066 C 405.563 495.073 403.899 494.894 402.344 494.413 L 402.343 494.413 Z M 333.598 450.675 C 326.184 443.76 325.785 432.17 332.703 424.757 C 339.523 417.37 351.109 416.87 358.52 423.8 C 365.918 430.608 366.414 442.19 359.492 449.69 C 355.879 453.589 351.016 455.542 346.062 455.542 C 341.57 455.542 337.18 453.897 333.597 450.674 L 333.598 450.675 Z M 306.125 419.995 C 302.918 414.936 302.418 408.897 304.379 403.749 C 300.18 406.464 295.016 407.628 289.774 406.358 C 281.273 404.421 275.641 396.823 275.746 388.436 C 274.387 397.034 266.973 403.745 258.012 403.933 C 248.379 404.112 240.289 396.82 239.426 387.39 C 239.902 396.921 232.887 405.406 223.355 406.554 C 213.219 407.835 204.16 400.616 202.899 390.589 C 201.723 380.566 208.836 371.402 218.864 370.238 C 229.004 369.062 238.055 376.175 239.32 386.203 L 239.32 386.707 L 239.32 386.019 C 239.117 375.871 247.106 367.511 257.234 367.304 C 267.371 367.125 275.754 375.121 275.937 385.242 L 275.937 385.824 C 276.043 385.335 276.14 384.855 276.234 384.351 C 278.562 374.523 288.398 368.48 298.242 370.812 L 298.242 370.722 C 308.074 373.07 314.219 382.976 311.883 392.832 C 311.691 393.507 311.492 394.203 311.199 394.886 C 311.289 394.886 311.484 394.769 311.586 394.679 C 320.062 389.226 331.449 391.667 336.91 400.121 C 342.359 408.621 339.93 419.999 331.445 425.457 C 328.324 427.398 324.922 428.379 321.523 428.379 C 315.464 428.379 309.625 425.449 306.125 419.996 L 306.125 419.995 Z M 453.68 412.378 C 443.746 410.44 437.214 400.796 439.16 390.968 C 441.109 381.034 450.754 374.515 460.687 376.452 C 470.617 378.405 477.054 388.038 475.101 397.882 C 473.445 406.636 465.754 412.788 457.176 412.788 C 456.012 412.792 454.844 412.589 453.68 412.378 L 453.68 412.378 Z" stroke="#010202" stroke-width=".3106"/>
  <path d="M 491.081 249.077 C 481.042 247.796 473.932 238.655 475.206 228.62 C 476.472 218.581 485.616 211.468 495.651 212.737 C 505.686 214.019 512.799 223.163 511.534 233.194 C 510.358 242.452 502.479 249.175 493.413 249.175 C 492.631 249.171 491.854 249.171 491.081 249.077 L 491.081 249.077 Z M 453.089 242.143 C 443.261 239.905 437.112 230.069 439.35 220.237 C 441.608 210.398 451.436 204.272 461.276 206.499 C 471.108 208.737 477.253 218.483 475.014 228.413 C 473.061 236.897 465.561 242.644 457.174 242.644 C 455.811 242.64 454.444 242.452 453.089 242.144 L 453.089 242.143 Z M 415.495 231.241 C 406.041 227.628 401.276 217.011 404.784 207.581 C 404.979 207.273 405.081 207.089 405.17 206.804 C 404.487 207.679 403.702 208.55 402.834 209.335 C 395.245 215.96 383.647 215.171 376.924 207.683 C 370.3 200.074 370.987 188.492 378.577 181.773 C 380.323 180.214 382.288 179.148 384.233 178.374 C 375.862 173.206 373.025 162.398 377.893 153.722 C 380.526 149.164 384.725 146.132 389.491 144.956 C 385.19 143.417 381.51 140.292 379.35 135.8 C 376.237 129.679 377.014 122.566 380.729 117.292 C 375.073 121.382 367.276 122.074 360.76 118.277 C 352.003 113.203 349.073 102.019 354.136 93.245 C 359.183 84.476 370.405 81.554 379.167 86.632 C 387.933 91.691 390.847 102.89 385.792 111.64 C 385.507 112.132 385.3 112.515 385.007 112.918 C 385.792 112.328 386.761 111.754 387.64 111.359 C 396.792 106.886 407.698 110.574 412.19 119.629 C 416.659 128.691 412.968 139.695 403.901 144.168 C 402.64 144.762 401.374 145.25 400.116 145.539 C 401.089 145.847 401.964 146.316 402.839 146.808 C 411.694 151.777 414.722 162.976 409.749 171.73 C 407.605 175.632 404.093 178.469 400.214 179.941 C 401.773 180.808 403.226 181.968 404.492 183.437 C 409.269 188.999 410.238 196.484 407.515 202.823 C 412.292 196.679 420.753 194.054 428.44 196.984 C 437.894 200.488 442.663 211.101 439.069 220.554 C 436.335 227.867 429.331 232.421 421.921 232.421 C 419.776 232.406 417.636 232.023 415.495 231.241 L 415.495 231.241 Z" stroke="#010202" stroke-width=".3106"/>
  <path d="M 148.154 329.605 L 148.154 328.843 C 148.048 329.413 147.95 330.007 147.868 330.589 C 145.712 340.519 135.978 346.761 126.044 344.613 C 116.216 342.367 109.876 332.624 112.028 322.796 C 112.22 322.011 112.407 321.327 112.704 320.644 C 110.755 321.636 108.712 322.3 106.478 322.605 C 96.446 323.964 87.184 316.855 85.927 306.82 C 84.665 296.788 91.673 287.651 101.7 286.374 C 102.759 286.183 103.841 286.183 104.915 286.183 C 104.618 286.078 104.22 285.992 103.946 285.898 C 94.403 282.371 89.622 271.773 93.134 262.331 L 93.028 262.331 C 96.532 252.866 107.157 247.992 116.595 251.511 C 117.005 251.605 117.482 251.792 117.864 251.992 C 117.685 251.89 117.478 251.788 117.384 251.699 C 108.822 246.234 106.376 234.933 111.833 226.476 C 115.052 221.324 120.399 218.394 126.052 217.992 C 125.369 217.421 124.787 216.831 124.208 216.238 C 118.845 210.499 117.869 202.323 121.001 195.699 C 119.345 196.187 117.486 196.476 115.63 196.476 C 105.509 196.57 97.228 188.394 97.228 178.257 C 97.228 168.133 105.408 159.957 115.545 159.863 C 116.42 159.863 117.287 159.957 118.271 160.055 C 117.869 159.961 117.584 159.863 117.287 159.676 C 108.049 155.683 103.756 144.953 107.744 135.613 C 111.736 126.375 122.56 122.078 131.807 126.07 C 132.193 126.261 132.584 126.468 132.971 126.652 C 132.674 126.461 132.295 126.254 131.99 125.968 C 123.623 120.312 121.474 108.918 127.119 100.551 C 132.775 92.168 144.158 90.039 152.549 95.683 C 152.842 95.875 153.131 96.16 153.435 96.371 C 152.943 95.871 152.549 95.379 152.068 94.91 C 145.728 87.008 146.81 75.516 154.693 69.09 C 162.49 62.667 173.975 63.82 180.404 71.715 C 186.838 79.519 185.658 91.012 177.884 97.441 C 171.154 102.894 161.705 102.894 155.091 97.82 C 161.33 103.867 162.49 113.703 157.419 121.187 C 152.154 128.894 142.037 131.327 133.951 127.125 C 141.736 131.804 145.056 141.55 141.353 150.124 L 141.353 150.218 C 138.044 157.902 129.861 162.203 121.876 161.027 C 128.88 163.558 133.853 170.296 133.853 178.167 C 133.853 180.999 133.263 183.718 131.993 186.152 C 138.525 184.214 145.927 185.87 150.892 191.12 C 157.802 198.519 157.415 210.129 150.005 217.027 C 146.802 220.058 142.798 221.706 138.619 221.995 C 145.915 227.742 147.779 238.163 142.611 246.148 L 142.705 246.148 C 137.744 253.952 127.81 256.683 119.724 252.98 C 127.115 257.347 130.544 266.62 127.423 274.984 C 124.583 282.683 117.181 287.347 109.396 286.972 C 116.017 289.003 121.274 294.769 122.243 302.171 C 122.646 305.073 122.243 307.909 121.368 310.53 C 125.079 308.593 129.454 307.819 133.845 308.796 C 142.318 310.628 148.165 318.026 148.255 326.3 C 149.329 317.659 156.337 310.726 165.29 310.257 C 175.427 309.562 184.095 317.253 184.767 327.386 C 185.361 337.522 177.662 346.179 167.536 346.78 C 167.138 346.78 166.853 346.866 166.474 346.866 C 156.818 346.847 148.732 339.342 148.153 329.605 L 148.154 329.605 Z M 184.763 327.175 C 183.017 317.144 189.74 307.694 199.775 306.046 C 209.705 304.292 219.158 311.019 220.904 321.054 C 222.56 330.976 215.841 340.429 205.908 342.183 C 204.833 342.367 203.865 342.367 202.888 342.367 C 194.025 342.367 186.318 336.152 184.763 327.175 L 184.763 327.175 Z M 220.904 320.945 C 218.568 311.117 224.705 301.167 234.544 298.847 C 244.384 296.507 254.212 302.632 256.564 312.472 C 258.892 322.304 252.845 332.155 243.013 334.468 C 241.544 334.87 240.095 334.972 238.74 334.972 C 230.447 334.968 222.947 329.324 220.904 320.944 L 220.904 320.945 Z M 256.74 312.663 C 253.716 302.937 259.087 292.698 268.83 289.675 C 278.466 286.757 288.697 292.113 291.701 301.749 C 294.732 311.406 289.275 321.73 279.626 324.73 C 277.869 325.218 276.033 325.496 274.177 325.496 C 266.388 325.5 259.181 320.453 256.74 312.664 L 256.74 312.663 Z" stroke="#010202" stroke-width=".3106"/>
</svg>